<svg width="618" height="261" viewBox="0 0 618 261" fill="none" xmlns="http://www.w3.org/2000/svg">
<path d="M559.945 70.5157V103.596C562.795 100.326 565.555 97.7357 568.265 95.8357C570.945 93.9357 573.935 92.4857 577.195 91.5357C580.485 90.5857 584.005 90.1157 587.775 90.1157C593.445 90.1157 598.465 91.3157 602.875 93.7157C607.255 96.1157 610.695 99.6057 613.205 104.186C614.795 106.836 615.855 109.826 616.415 113.146C616.945 116.436 617.225 120.236 617.225 124.536V167.336C617.225 171.806 616.195 175.176 614.155 177.476C612.115 179.766 609.385 180.906 606.005 180.906C598.635 180.906 594.955 176.386 594.955 167.336V129.626C594.955 122.476 593.895 116.976 591.775 113.156C589.655 109.306 585.605 107.376 579.655 107.376C575.695 107.376 572.095 108.516 568.905 110.776C565.725 113.036 563.325 116.106 561.755 120.046C560.555 123.366 559.945 129.286 559.945 137.806V167.336C559.945 171.746 558.935 175.096 556.955 177.416C554.975 179.736 552.205 180.906 548.695 180.906C541.355 180.906 537.665 176.386 537.665 167.336V70.5257C537.665 66.0057 538.645 62.6257 540.565 60.3657C542.495 58.1057 545.195 56.9557 548.685 56.9557C552.175 56.9557 554.965 58.0957 556.945 60.3857C558.925 62.6757 559.935 66.0557 559.935 70.5157M522.895 153.296C522.895 156.056 522.055 159.046 520.385 162.196C518.735 165.346 516.195 168.366 512.795 171.216C509.395 174.066 505.095 176.376 499.895 178.116C494.735 179.876 488.895 180.736 482.395 180.736C468.605 180.736 457.825 176.716 450.095 168.676C442.335 160.636 438.455 149.856 438.455 136.326C438.455 127.166 440.245 119.076 443.785 112.036C447.325 104.996 452.465 99.5557 459.165 95.7357C465.895 91.8857 473.905 89.9557 483.235 89.9557C489.015 89.9557 494.315 90.7957 499.145 92.4957C503.945 94.1957 508.055 96.3757 511.405 99.0557C514.755 101.736 517.325 104.586 519.085 107.596C520.875 110.636 521.765 113.456 521.765 116.086C521.765 118.716 520.765 121.026 518.775 122.896C516.765 124.736 514.365 125.656 511.515 125.656C509.675 125.656 508.135 125.186 506.905 124.236C505.675 123.286 504.305 121.756 502.775 119.626C500.045 115.496 497.195 112.366 494.235 110.306C491.245 108.236 487.475 107.206 482.905 107.206C476.315 107.206 470.985 109.776 466.965 114.936C462.915 120.076 460.905 127.106 460.905 136.036C460.905 140.226 461.435 144.076 462.465 147.596C463.495 151.116 464.975 154.126 466.955 156.586C468.905 159.066 471.285 160.946 474.075 162.226C476.835 163.506 479.905 164.156 483.235 164.156C487.705 164.156 491.525 163.126 494.705 161.056C497.915 158.996 500.735 155.806 503.195 151.566C504.535 149.056 506.015 147.096 507.605 145.706C509.165 144.286 511.125 143.556 513.415 143.556C516.145 143.556 518.415 144.616 520.195 146.686C521.985 148.756 522.905 150.956 522.905 153.306L522.895 153.296ZM361.875 128.306H402.355C401.825 120.686 399.755 114.986 396.185 111.196C392.615 107.426 387.925 105.526 382.085 105.526C376.245 105.526 371.945 107.456 368.375 111.276C364.805 115.126 362.625 120.796 361.865 128.306H361.875ZM405.565 141.036H361.875C361.935 146.116 362.965 150.586 364.945 154.466C366.925 158.346 369.585 161.246 372.875 163.206C376.165 165.186 379.825 166.166 383.785 166.166C386.465 166.166 388.895 165.856 391.095 165.216C393.325 164.606 395.455 163.626 397.515 162.286C399.605 160.946 401.505 159.526 403.235 157.986C404.995 156.446 407.255 154.386 410.045 151.756C411.185 150.776 412.805 150.276 414.925 150.276C417.215 150.276 419.085 150.916 420.505 152.176C421.895 153.406 422.625 155.196 422.625 157.486C422.625 159.496 421.815 161.836 420.255 164.546C418.665 167.226 416.295 169.826 413.085 172.276C409.905 174.756 405.915 176.826 401.085 178.446C396.255 180.096 390.705 180.906 384.445 180.906C370.095 180.906 358.955 176.806 351.005 168.626C343.045 160.446 339.085 149.366 339.085 135.346C339.085 128.756 340.065 122.616 342.015 116.976C343.965 111.336 346.845 106.506 350.585 102.456C354.355 98.4357 358.985 95.3357 364.485 93.1857C369.985 91.0357 376.095 89.9457 382.795 89.9457C391.535 89.9457 399.015 91.7857 405.235 95.4757C411.485 99.1557 416.155 103.906 419.275 109.766C422.375 115.596 423.935 121.546 423.935 127.606C423.935 133.216 422.315 136.876 419.105 138.546C415.895 140.196 411.375 141.026 405.535 141.026L405.565 141.036ZM285.215 92.1257H287.675V78.6957C287.675 75.0957 287.755 72.2757 287.955 70.2357C288.155 68.1657 288.675 66.4157 289.545 64.9557C290.415 63.4157 291.665 62.1657 293.315 61.2157C294.935 60.2657 296.745 59.7957 298.785 59.7957C301.605 59.7957 304.145 60.8557 306.435 62.9757C307.975 64.3957 308.915 66.1257 309.335 68.1957C309.755 70.2357 309.955 73.1357 309.955 76.9057V92.1257H318.135C321.285 92.1257 323.715 92.8757 325.365 94.3557C327.035 95.8657 327.875 97.7857 327.875 100.106C327.875 103.126 326.675 105.216 324.305 106.416C321.935 107.616 318.555 108.206 314.115 108.206H309.955V149.246C309.955 152.736 310.065 155.446 310.315 157.316C310.565 159.186 311.205 160.716 312.275 161.896C313.365 163.066 315.095 163.656 317.495 163.656C318.785 163.656 320.565 163.436 322.805 162.956C325.035 162.506 326.795 162.256 328.025 162.256C329.835 162.256 331.455 162.986 332.915 164.436C334.365 165.886 335.065 167.676 335.065 169.796C335.065 173.396 333.115 176.136 329.205 178.026C325.265 179.956 319.635 180.906 312.265 180.906C305.285 180.906 300.015 179.736 296.435 177.386C292.835 175.036 290.485 171.806 289.375 167.646C288.255 163.516 287.695 157.986 287.695 151.066V108.216H284.765C281.525 108.216 279.065 107.466 277.395 105.926C275.695 104.416 274.855 102.466 274.855 100.116C274.855 97.7657 275.745 95.8757 277.505 94.3657C279.295 92.8857 281.855 92.1357 285.235 92.1357L285.215 92.1257Z" fill="black"/>
<path d="M160.785 70.5157V103.596C163.635 100.326 166.395 97.7357 169.105 95.8357C171.785 93.9357 174.775 92.4857 178.035 91.5357C181.325 90.5857 184.845 90.1157 188.615 90.1157C194.285 90.1157 199.305 91.3157 203.715 93.7157C208.095 96.1157 211.535 99.6057 214.045 104.186C215.635 106.836 216.695 109.826 217.255 113.146C217.785 116.436 218.065 120.236 218.065 124.536V167.336C218.065 171.806 217.035 175.176 214.995 177.476C212.955 179.766 210.225 180.906 206.845 180.906C199.475 180.906 195.795 176.386 195.795 167.336V129.626C195.795 122.476 194.735 116.976 192.615 113.156C190.495 109.306 186.445 107.376 180.495 107.376C176.535 107.376 172.935 108.516 169.745 110.776C166.565 113.036 164.165 116.106 162.595 120.046C161.395 123.366 160.785 129.286 160.785 137.806V167.336C160.785 171.746 159.785 175.096 157.795 177.416C155.815 179.736 153.045 180.906 149.535 180.906C142.195 180.906 138.505 176.386 138.505 167.336V70.5257C138.505 66.0057 139.485 62.6257 141.405 60.3657C143.335 58.1057 146.035 56.9557 149.525 56.9557C153.015 56.9557 155.805 58.0957 157.785 60.3857C159.765 62.6757 160.775 66.0557 160.775 70.5157" fill="#E3000F"/>
<path d="M128.005 59.9857C128.005 91.9057 103.615 118.246 72.095 122.126V167.366C72.095 171.776 71.085 175.126 69.105 177.446C67.125 179.766 64.355 180.936 60.815 180.936C53.445 180.936 49.755 176.416 49.755 167.366V121.046C21.305 114.686 0.0849609 89.7657 0.0849609 59.9857C0.0849609 32.9157 17.625 9.86565 42.175 1.11565C51.255 -1.60435 56.115 6.73565 46.725 12.1557C32.375 20.4557 22.415 38.7457 22.415 59.9857C22.415 82.6857 33.795 102.016 49.745 109.386V49.8757C49.435 48.8857 49.385 46.7657 49.745 42.9657V30.8457C49.745 28.7957 49.945 26.9757 50.345 25.3957C52.065 16.4457 61.755 4.69565 74.575 1.81565C104.795 -4.98435 127.995 30.4457 127.995 59.9857M72.085 30.8457V111.586C91.225 106.856 105.665 85.5556 105.665 59.9957C105.665 47.4957 98.645 16.4157 81.185 15.7957C74.505 15.5557 72.085 26.1457 72.085 30.8557V30.8457Z" fill="#E3000F"/>
<path fill-rule="evenodd" clip-rule="evenodd" d="M248.845 60.7157C256.795 60.7157 263.245 67.1657 263.245 75.1157C263.245 83.0657 256.795 89.5157 248.845 89.5157C240.895 89.5157 234.445 83.0657 234.445 75.1157C234.445 67.1657 240.895 60.7157 248.845 60.7157Z" fill="black"/>
<path d="M269.285 243.326C269.105 243.326 268.915 243.326 268.735 243.296C266.435 243.046 264.595 241.266 264.255 238.976L249.125 135.916L240.195 195.586C239.825 198.076 237.685 199.916 235.165 199.916L7.3549 199.866C4.5449 199.866 2.2749 197.586 2.2749 194.776C2.2749 191.966 4.5549 189.696 7.3649 189.696L230.795 189.746L244.155 100.476C244.525 97.9858 246.665 96.1458 249.185 96.1458C251.705 96.1458 253.845 97.9958 254.205 100.496L271.475 218.156L282.125 190.106C282.875 188.136 284.765 186.826 286.875 186.826H612.165C614.975 186.826 617.255 189.106 617.255 191.916C617.255 194.726 614.975 197.006 612.165 197.006H290.385L274.035 240.056C273.275 242.046 271.375 243.336 269.285 243.336V243.326Z" fill="#E3000F"/>
<path d="M583.585 248.596L589.115 248.286C589.115 249.866 589.355 251.206 589.845 252.326C590.325 253.436 591.215 254.346 592.505 255.056C593.815 255.766 595.325 256.126 597.045 256.126C599.465 256.126 601.275 255.636 602.475 254.666C603.685 253.706 604.285 252.556 604.285 251.236C604.285 250.296 603.925 249.396 603.205 248.536C602.455 247.686 600.645 246.636 597.775 245.396C594.895 244.166 593.045 243.286 592.235 242.786C590.865 241.956 589.845 240.986 589.145 239.856C588.455 238.736 588.105 237.446 588.105 235.986C588.105 233.446 589.115 231.256 591.135 229.436C593.155 227.626 595.975 226.706 599.615 226.706C603.645 226.706 606.725 227.636 608.835 229.516C610.945 231.386 612.035 233.846 612.125 236.906L606.775 237.276C606.695 235.326 606.005 233.786 604.725 232.646C603.435 231.506 601.615 230.936 599.265 230.936C597.365 230.936 595.895 231.376 594.845 232.246C593.795 233.126 593.275 234.066 593.275 235.086C593.275 236.106 593.735 236.996 594.635 237.756C595.235 238.286 596.795 239.096 599.305 240.186C603.495 241.996 606.125 243.426 607.215 244.486C608.955 246.156 609.825 248.196 609.825 250.596C609.825 252.196 609.335 253.756 608.355 255.296C607.375 256.826 605.885 258.056 603.875 258.976C601.865 259.896 599.505 260.356 596.775 260.356C593.065 260.356 589.905 259.436 587.295 257.586C584.695 255.756 583.445 252.746 583.575 248.596M541.405 259.666L548.165 227.386H553.185L552.025 233.026C554.215 230.826 556.265 229.226 558.165 228.216C560.075 227.206 562.025 226.706 564.005 226.706C566.645 226.706 568.725 227.426 570.225 228.846C571.725 230.266 572.485 232.166 572.485 234.546C572.485 235.736 572.205 237.616 571.645 240.186L567.275 259.676H561.815L566.345 239.266C566.795 237.276 567.025 235.816 567.025 234.856C567.025 233.786 566.655 232.916 565.895 232.256C565.135 231.586 564.045 231.246 562.615 231.246C559.745 231.246 557.195 232.256 554.955 234.276C552.705 236.296 551.055 239.756 550.005 244.666L546.875 259.676H541.415L541.405 259.666ZM506.245 246.866C506.245 249.906 506.985 252.206 508.445 253.766C509.905 255.326 511.775 256.116 514.035 256.116C515.215 256.116 516.385 255.876 517.545 255.406C518.705 254.926 519.785 254.216 520.775 253.236C521.785 252.256 522.635 251.156 523.325 249.906C524.035 248.666 524.605 247.326 525.025 245.886C525.655 243.886 525.965 241.966 525.965 240.126C525.965 237.216 525.225 234.956 523.755 233.346C522.275 231.736 520.415 230.926 518.175 230.926C516.445 230.926 514.865 231.336 513.445 232.156C512.015 232.976 510.725 234.166 509.575 235.756C508.425 237.336 507.585 239.166 507.045 241.256C506.505 243.346 506.235 245.216 506.235 246.856L506.245 246.866ZM500.765 247.396C500.765 241.116 502.615 235.906 506.325 231.786C509.385 228.396 513.385 226.696 518.355 226.696C522.235 226.696 525.365 227.906 527.745 230.336C530.115 232.766 531.315 236.036 531.315 240.156C531.315 243.856 530.565 247.296 529.065 250.486C527.575 253.666 525.435 256.116 522.675 257.806C519.905 259.506 517.005 260.356 513.945 260.356C511.435 260.356 509.155 259.816 507.105 258.746C505.045 257.676 503.475 256.156 502.395 254.196C501.305 252.236 500.765 249.976 500.765 247.406V247.396ZM478.865 259.666L485.625 227.386H491.085L484.325 259.666H478.865ZM486.885 221.346L488.185 215.126H493.645L492.335 221.346H486.875H486.885ZM467.465 255.206L466.555 259.706C465.235 260.046 463.965 260.226 462.735 260.226C460.545 260.226 458.815 259.686 457.515 258.606C456.555 257.796 456.065 256.686 456.065 255.286C456.065 254.576 456.325 252.946 456.855 250.396L460.775 231.606H456.415L457.285 227.376H461.635L463.305 219.466L469.595 215.686L467.105 227.376H472.515L471.585 231.606H466.235L462.505 249.466C462.035 251.736 461.815 253.096 461.815 253.546C461.815 254.196 462.005 254.696 462.375 255.036C462.745 255.376 463.355 255.556 464.215 255.556C465.425 255.556 466.515 255.446 467.475 255.206H467.465ZM435.035 253.826C431.165 258.166 427.195 260.346 423.145 260.346C420.655 260.346 418.645 259.636 417.115 258.226C415.585 256.806 414.815 255.066 414.815 253.006C414.815 251.646 415.195 249.326 415.945 246.016L420.185 227.376H425.705L421.005 248.276C420.615 250.016 420.415 251.376 420.415 252.336C420.415 253.446 420.785 254.316 421.545 254.926C422.295 255.546 423.395 255.856 424.865 255.856C426.435 255.856 427.955 255.486 429.445 254.736C430.935 253.986 432.225 252.986 433.305 251.716C434.385 250.456 435.265 248.946 435.945 247.216C436.395 246.116 436.925 244.176 437.515 241.396L440.585 227.356H446.045L438.905 259.636H433.825L435.035 253.796V253.826ZM391.785 259.666L401.085 215.126H406.545L397.255 259.666H391.785ZM356.975 246.866C356.975 249.906 357.715 252.206 359.175 253.766C360.635 255.326 362.505 256.116 364.765 256.116C365.945 256.116 367.115 255.876 368.275 255.406C369.435 254.926 370.515 254.216 371.505 253.236C372.515 252.256 373.365 251.156 374.055 249.906C374.765 248.666 375.335 247.326 375.755 245.886C376.385 243.886 376.695 241.966 376.695 240.126C376.695 237.216 375.955 234.956 374.485 233.346C373.005 231.736 371.145 230.926 368.905 230.926C367.175 230.926 365.595 231.336 364.175 232.156C362.745 232.976 361.455 234.166 360.305 235.756C359.155 237.336 358.315 239.166 357.775 241.256C357.235 243.346 356.965 245.216 356.965 246.856L356.975 246.866ZM351.495 247.396C351.495 241.116 353.345 235.906 357.055 231.786C360.115 228.396 364.115 226.696 369.085 226.696C372.965 226.696 376.095 227.906 378.475 230.336C380.845 232.766 382.045 236.036 382.045 240.156C382.045 243.856 381.295 247.296 379.795 250.486C378.305 253.666 376.165 256.116 373.405 257.806C370.635 259.506 367.735 260.356 364.675 260.356C362.165 260.356 359.885 259.816 357.835 258.746C355.775 257.676 354.205 256.156 353.125 254.196C352.035 252.236 351.495 249.976 351.495 247.406V247.396ZM304.285 245.296L310.135 244.736L310.075 246.286C310.075 248.006 310.475 249.586 311.255 251.016C312.045 252.436 313.345 253.546 315.165 254.326C316.985 255.106 319.145 255.496 321.655 255.496C325.205 255.496 327.915 254.716 329.795 253.156C331.665 251.586 332.595 249.806 332.595 247.796C332.595 246.396 332.095 245.106 331.115 243.956C330.095 242.816 327.345 241.276 322.835 239.336C319.345 237.826 316.955 236.656 315.685 235.856C313.685 234.536 312.215 233.106 311.255 231.556C310.305 230.016 309.835 228.246 309.835 226.256C309.835 223.976 310.465 221.906 311.725 220.066C312.985 218.226 314.815 216.806 317.225 215.846C319.645 214.876 322.365 214.386 325.405 214.386C329.035 214.386 332.095 214.986 334.575 216.196C337.065 217.406 338.865 219.026 339.985 221.046C341.115 223.066 341.675 225.006 341.675 226.846V227.756L335.885 228.216C335.885 226.946 335.775 225.976 335.555 225.256C335.155 224.026 334.525 222.976 333.675 222.126C332.825 221.276 331.665 220.596 330.185 220.076C328.705 219.556 327.045 219.296 325.195 219.296C321.975 219.296 319.465 220.026 317.665 221.486C316.285 222.606 315.605 224.086 315.605 225.936C315.605 227.036 315.885 228.016 316.455 228.876C317.015 229.736 318.045 230.586 319.515 231.416C320.565 232.006 323.065 233.166 326.985 234.906C330.175 236.316 332.375 237.436 333.595 238.246C335.215 239.326 336.455 240.616 337.315 242.146C338.185 243.676 338.625 245.416 338.625 247.356C338.625 249.766 337.885 251.976 336.425 254.016C334.955 256.056 332.925 257.636 330.335 258.746C327.745 259.856 324.775 260.416 321.435 260.416C316.385 260.416 312.285 259.316 309.085 257.126C305.905 254.936 304.295 250.986 304.275 245.296H304.285Z" fill="black"/>
</svg>
