<svg width="69" height="69" viewBox="0 0 69 69" fill="none" xmlns="http://www.w3.org/2000/svg">
<path fill-rule="evenodd" clip-rule="evenodd" d="M7.82116 0.932556H31.3574V6.52367C30.7695 6.41875 30.1644 6.36401 29.547 6.36401C23.8809 6.36401 19.2875 10.9573 19.2875 16.6234C19.2875 22.2895 23.8809 26.8828 29.547 26.8828C30.1644 26.8828 30.7695 26.8281 31.3574 26.7232V31.7108H21.668C20.4779 31.7108 19.3989 32.4103 18.9132 33.4968C18.4275 34.5833 18.6259 35.8538 19.4195 36.7406C20.0903 37.49 20.4945 38.4723 20.4945 39.5562C20.4945 41.8893 18.6032 43.7807 16.2701 43.7807C13.937 43.7807 12.0456 41.8893 12.0456 39.5562C12.0456 38.4723 12.4499 37.49 13.1206 36.7406C13.9143 35.8538 14.1126 34.5833 13.6269 33.4968C13.1412 32.4103 12.0623 31.7108 10.8722 31.7108H0.579224V8.17449C0.579224 4.17488 3.82155 0.932556 7.82116 0.932556ZM0.579224 37.7457V61.282C0.579224 65.2815 3.82155 68.5239 7.82116 68.5239H31.3574V58.2312C31.3574 57.0406 32.057 55.9621 33.1435 55.4764C34.23 54.9907 35.5005 55.1886 36.3873 55.9823C37.1367 56.6534 38.119 57.0575 39.2029 57.0575C41.536 57.0575 43.4273 55.1659 43.4273 52.8331C43.4273 50.5002 41.536 48.6086 39.2029 48.6086C38.119 48.6086 37.1367 49.0129 36.3873 49.6838C35.5005 50.4775 34.23 50.6755 33.1435 50.1898C32.057 49.7041 31.3574 48.6253 31.3574 47.4352V37.7457H26.3698C26.4747 38.3337 26.5295 38.9387 26.5295 39.5562C26.5295 45.2223 21.9362 49.8156 16.2701 49.8156C10.6039 49.8156 6.01067 45.2223 6.01067 39.5562C6.01067 38.9387 6.06542 38.3337 6.17033 37.7457H0.579224ZM37.3924 37.7457V42.7333C37.9803 42.6284 38.5854 42.5737 39.2029 42.5737C44.8689 42.5737 49.4623 47.167 49.4623 52.8331C49.4623 58.4992 44.8689 63.0925 39.2029 63.0925C38.5854 63.0925 37.9803 63.0379 37.3924 62.9327V68.5239H60.9287C64.9281 68.5239 68.1706 65.2815 68.1706 61.282V37.7457H57.8779C56.6873 37.7457 55.6087 37.0462 55.123 35.9597C54.6373 34.8731 54.8353 33.6026 55.629 32.7159C56.3001 31.9665 56.7042 30.9842 56.7042 29.9003C56.7042 27.5672 54.8126 25.6758 52.4797 25.6758C50.1469 25.6758 48.2553 27.5672 48.2553 29.9003C48.2553 30.9842 48.6595 31.9665 49.3305 32.7159C50.1242 33.6026 50.3221 34.8731 49.8364 35.9597C49.3507 37.0462 48.2719 37.7457 47.0818 37.7457H37.3924ZM68.1706 31.7108V8.17449C68.1706 4.17488 64.9281 0.932556 60.9287 0.932556H37.3924V11.2255C37.3924 12.4156 36.6929 13.4946 35.6063 13.9802C34.5198 14.4659 33.2493 14.2677 32.3625 13.4739C31.6131 12.8032 30.6308 12.3989 29.547 12.3989C27.2138 12.3989 25.3225 14.2903 25.3225 16.6234C25.3225 18.9565 27.2138 20.8479 29.547 20.8479C30.6308 20.8479 31.6131 20.4436 32.3625 19.7729C33.2493 18.9792 34.5198 18.7809 35.6063 19.2666C36.6929 19.7523 37.3924 20.8312 37.3924 22.0213V31.7108H42.38C42.2751 31.1228 42.2203 30.5177 42.2203 29.9003C42.2203 24.2342 46.8136 19.6409 52.4797 19.6409C58.1458 19.6409 62.7391 24.2341 62.7391 29.9003C62.7391 30.5177 62.6846 31.1228 62.5793 31.7108H68.1706Z" fill="#DC3033"/>
</svg>
