<svg width="69" height="69" viewBox="0 0 69 69" fill="none" xmlns="http://www.w3.org/2000/svg">
<path d="M34.2372 27.9691C41.703 27.9691 47.7555 21.9168 47.7555 14.4508C47.7555 6.98489 41.703 0.932556 34.2372 0.932556C26.7713 0.932556 20.7189 6.98489 20.7189 14.4508C20.7189 21.9168 26.7713 27.9691 34.2372 27.9691ZM12.27 38.1078C16.9362 38.1078 20.7189 34.3251 20.7189 29.6589C20.7189 24.9927 16.9362 21.21 12.27 21.21C7.60381 21.21 3.8211 24.9927 3.8211 29.6589C3.8211 34.3251 7.60381 38.1078 12.27 38.1078ZM64.6533 29.6589C64.6533 34.3251 60.8706 38.1078 56.2044 38.1078C51.5382 38.1078 47.7555 34.3251 47.7555 29.6589C47.7555 24.9927 51.5382 21.21 56.2044 21.21C60.8706 21.21 64.6533 24.9927 64.6533 29.6589ZM34.2372 31.3487C43.5696 31.3487 51.1351 38.9142 51.1351 48.2465V68.5239H17.3394V48.2465C17.3394 38.9142 24.9048 31.3487 34.2372 31.3487ZM10.5802 48.2462C10.5802 45.9045 10.9205 43.6422 11.5542 41.5063L10.9812 41.5563C5.05474 42.1984 0.441528 47.2185 0.441528 53.3155V68.5236H10.5802V48.2462ZM68.0329 68.5236V53.3155C68.0329 47.0224 63.1187 41.877 56.9202 41.5063C57.5539 43.6422 57.8942 45.9045 57.8942 48.2462V68.5236H68.0329Z" fill="#DC3033"/>
</svg>
