<svg width="68" height="69" viewBox="0 0 68 69" fill="none" xmlns="http://www.w3.org/2000/svg">
<path fill-rule="evenodd" clip-rule="evenodd" d="M49.3105 33.8173C51.9025 33.8182 54.4579 33.2061 56.7683 32.0311C59.0786 30.8561 61.0784 29.1514 62.6044 27.0563C64.1303 24.9611 65.1393 22.5348 65.5488 19.9753C65.9583 17.4159 65.7568 14.7959 64.9608 12.3292C64.5772 11.1456 63.0977 10.9008 62.2173 11.7812L52.3792 21.6156C52.1537 21.8551 51.8615 22.0215 51.5404 22.0931C51.2193 22.1648 50.8841 22.1384 50.5782 22.0175C47.9057 20.9072 45.7809 18.785 44.6673 16.1139C44.5481 15.8071 44.5226 15.4718 44.5942 15.1506C44.6657 14.8293 44.831 14.5365 45.0692 14.3093L54.9109 4.47484C55.7876 3.59442 55.5465 2.11122 54.3629 1.72763C51.8105 0.903606 49.0952 0.71661 46.4539 1.18296C43.8126 1.6493 41.3256 2.75482 39.2097 4.40309C37.0937 6.05136 35.4133 8.19231 34.3148 10.6392C33.2163 13.0861 32.7332 15.7646 32.9077 18.441C33.1086 21.6303 32.44 25.046 29.9851 27.0918L3.57246 49.0987C2.5124 49.9847 1.64845 51.0817 1.03559 52.3199C0.422744 53.5581 0.0744289 54.9103 0.0128274 56.2905C-0.0487742 57.6707 0.177687 59.0486 0.677793 60.3364C1.1779 61.6243 1.94069 62.7939 2.9176 63.7708C3.89451 64.7478 5.06414 65.5106 6.35201 66.0107C7.63988 66.5108 9.01777 66.7372 10.398 66.6756C11.7781 66.614 13.1304 66.2657 14.3686 65.6529C15.6068 65.04 16.7038 64.176 17.5898 63.116L39.5967 36.7034C41.6425 34.2484 45.0582 33.5799 48.2474 33.7808C48.5981 33.8052 48.9525 33.8173 49.3105 33.8173ZM14.6051 55.7365C14.6051 56.7054 14.2202 57.6346 13.5351 58.3197C12.85 59.0048 11.9208 59.3897 10.9519 59.3897C9.98304 59.3897 9.05383 59.0048 8.36872 58.3197C7.68361 57.6346 7.29873 56.7054 7.29873 55.7365C7.29873 54.7676 7.68361 53.8384 8.36872 53.1533C9.05383 52.4682 9.98304 52.0833 10.9519 52.0833C11.9208 52.0833 12.85 52.4682 13.5351 53.1533C14.2202 53.8384 14.6051 54.7676 14.6051 55.7365Z" fill="#DC3033"/>
<path d="M49.3105 39.2971C49.9437 39.2971 50.5697 39.2703 51.1883 39.2168L64.9024 52.9309C66.6154 54.6439 67.5777 56.9672 67.5777 59.3897C67.5777 61.8123 66.6154 64.1356 64.9024 65.8486C63.1894 67.5616 60.8661 68.5239 58.4435 68.5239C56.021 68.5239 53.6977 67.5616 51.9847 65.8486L35.874 49.738L43.8088 40.2141C43.9988 39.9876 44.3458 39.7099 45.0582 39.4981C45.9835 39.2555 46.9435 39.1727 47.8967 39.2533C48.3643 39.2825 48.8356 39.2971 49.3105 39.2971ZM18.2583 14.0389L26.7703 22.5509C26.6865 22.6718 26.5883 22.7822 26.478 22.8797L21.1809 27.2927L13.0927 19.2045H8.42756C8.08863 19.2045 7.75638 19.1102 7.46798 18.9321C7.17959 18.7541 6.94643 18.4993 6.79458 18.1963L0.584145 5.76807C0.412531 5.42548 0.352998 5.0376 0.41397 4.65931C0.474941 4.28103 0.65333 3.93149 0.923893 3.66018L2.71396 1.87011C2.98486 1.59895 3.33419 1.41987 3.71249 1.35824C4.0908 1.29661 4.4789 1.35555 4.82186 1.52671L17.25 7.73715C17.5542 7.88954 17.8097 8.12384 17.9879 8.41365C18.166 8.70346 18.2597 9.03725 18.2583 9.37743V14.0389Z" fill="#DC3033"/>
</svg>
