<svg width="55" height="69" viewBox="0 0 55 69" fill="none" xmlns="http://www.w3.org/2000/svg">
<path fill-rule="evenodd" clip-rule="evenodd" d="M14.4173 2.96244C14.9654 1.72759 16.1867 0.932556 17.54 0.932556H44.5272C47.0646 0.932556 48.7189 3.60523 47.5822 5.8787L39.9059 21.2313H51.2664C54.3112 21.2313 55.8336 24.9122 53.682 27.0639L13.2434 67.5025C10.6925 70.0533 6.4433 67.428 7.5868 64.0077L16.207 38.147H4.03451C3.46528 38.147 2.90508 38.0048 2.40478 37.7332C1.90448 37.4617 1.47993 37.0695 1.16971 36.5923C0.859486 36.115 0.67341 35.5678 0.628383 35.0003C0.583357 34.4329 0.680806 33.8632 0.911879 33.343L14.4173 2.96244Z" fill="#DC3033"/>
</svg>
