<svg width="136" height="135" viewBox="0 0 136 135" fill="none" xmlns="http://www.w3.org/2000/svg">
<path d="M108.351 26.7357C107.881 26.2692 107.247 26.0073 106.585 26.0073C105.923 26.0073 105.288 26.2692 104.819 26.7357L71.0566 59.4713C70.5784 59.9363 70.3044 60.5722 70.295 61.2392C70.2856 61.9062 70.5415 62.5496 71.0065 63.0278C71.4715 63.5061 72.1075 63.7801 72.7744 63.7895C73.4414 63.7989 74.0848 63.5429 74.5631 63.0779L108.301 30.2672C108.774 29.8046 109.045 29.1735 109.054 28.5118C109.063 27.85 108.811 27.2115 108.351 26.7357Z" fill="#DC3033"/>
<path d="M126.685 52.283H122.752C122.082 52.2854 121.428 52.076 120.884 51.6847C120.34 51.2934 119.933 50.7401 119.722 50.1039C118.571 46.6811 117.077 43.3833 115.263 40.2607L130.692 25.0075C132.939 22.758 134.201 19.7086 134.201 16.5293C134.201 13.3499 132.939 10.3006 130.692 8.05106L126.735 4.21897C124.489 1.99593 121.454 0.75312 118.294 0.762571C116.723 0.760862 115.168 1.07229 113.718 1.67865C112.269 2.28502 110.955 3.17416 109.853 4.29411L94.3247 19.6225C91.4601 18.0627 88.4689 16.7472 85.3832 15.6902C84.7495 15.4781 84.1996 15.0704 83.8125 14.5258C83.4254 13.9812 83.2211 13.3277 83.2292 12.6596V8.70227C83.2226 6.52116 82.3515 4.43165 80.8068 2.89171C79.2622 1.35178 77.17 0.48705 74.9889 0.487061H60.9379C58.7568 0.48705 56.6646 1.35178 55.12 2.89171C53.5754 4.43165 52.7043 6.52116 52.6976 8.70227V12.6345C52.7001 13.3049 52.4907 13.9588 52.0994 14.5031C51.7081 15.0473 51.1548 15.454 50.5186 15.6652C48.146 16.4739 45.8285 17.436 43.5808 18.5455C42.984 18.8362 42.3117 18.9345 41.6567 18.8268C41.0017 18.7192 40.3963 18.4108 39.924 17.9444L37.1689 15.1642C35.6163 13.6256 33.5189 12.7623 31.3331 12.7623C29.1472 12.7623 27.0498 13.6256 25.4973 15.1642L15.629 25.0325C14.8611 25.798 14.2518 26.7075 13.8361 27.709C13.4204 28.7104 13.2064 29.784 13.2064 30.8683C13.2064 31.9526 13.4204 33.0262 13.8361 34.0276C14.2518 35.0291 14.8611 35.9386 15.629 36.7041L18.3841 39.4843C18.86 39.9556 19.1764 40.5642 19.2887 41.2246C19.401 41.8849 19.3036 42.5639 19.0103 43.1661C17.894 45.4075 16.9398 47.7261 16.155 50.1039C15.9359 50.7401 15.5238 51.292 14.976 51.6826C14.4282 52.0732 13.7721 52.2831 13.0993 52.283H9.14201C6.95655 52.283 4.86061 53.1511 3.31526 54.6965C1.76992 56.2418 0.901749 58.3378 0.901749 60.5232V74.474C0.901749 76.6595 1.76992 78.7554 3.31526 80.3008C4.86061 81.8461 6.95655 82.7143 9.14201 82.7143H13.0743C13.7446 82.7118 14.3986 82.9212 14.9428 83.3125C15.4871 83.7039 15.8938 84.2571 16.1049 84.8933C16.9136 87.2659 17.8758 89.5834 18.9852 91.8312C19.2786 92.4334 19.3759 93.1123 19.2636 93.7727C19.1513 94.433 18.835 95.0416 18.3591 95.513L15.604 98.2931C14.8156 99.0475 14.1874 99.9531 13.7571 100.956C13.3267 101.959 13.103 103.038 13.0993 104.129C13.1101 105.219 13.3369 106.296 13.7669 107.298C14.1968 108.3 14.8212 109.206 15.604 109.965L25.4722 119.833C27.0248 121.372 29.1222 122.235 31.308 122.235C33.4939 122.235 35.5913 121.372 37.1438 119.833L39.924 117.053C40.3905 116.578 40.9932 116.26 41.6485 116.144C42.3037 116.027 42.9791 116.117 43.5808 116.402C45.8242 117.514 48.1424 118.468 50.5186 119.257C51.1548 119.476 51.7066 119.888 52.0973 120.436C52.4879 120.984 52.6978 121.64 52.6976 122.313V126.245C52.6976 128.43 53.5658 130.526 55.1112 132.072C56.6565 133.617 58.7524 134.485 60.9379 134.485H74.9889C76.0731 134.488 77.1474 134.278 78.15 133.865C79.1527 133.452 80.064 132.846 80.8319 132.08C81.5997 131.315 82.2089 130.405 82.6246 129.404C83.0403 128.403 83.2542 127.329 83.2542 126.245V122.338C83.2447 121.666 83.448 121.009 83.8349 120.46C84.2219 119.911 84.7726 119.499 85.4082 119.282C87.7607 118.485 90.054 117.522 92.2709 116.402C92.8693 116.11 93.544 116.014 94.2 116.126C94.856 116.239 95.4603 116.554 95.9277 117.028L98.7078 119.808C100.26 121.347 102.358 122.21 104.544 122.21C106.729 122.21 108.827 121.347 110.379 119.808L120.248 109.94C121.786 108.387 122.65 106.29 122.65 104.104C122.65 101.918 121.786 99.8206 120.248 98.2681L117.568 95.513C117.092 95.0416 116.776 94.433 116.663 93.7727C116.551 93.1123 116.648 92.4334 116.942 91.8312C118.066 89.5902 119.028 87.2716 119.822 84.8933C120.033 84.2571 120.44 83.7039 120.984 83.3125C121.528 82.9212 122.182 82.7118 122.853 82.7143H126.785C128.97 82.7143 131.066 81.8461 132.612 80.3008C134.157 78.7554 135.025 76.6595 135.025 74.474V60.5232C135.025 59.4326 134.809 58.3528 134.388 57.3465C133.968 56.3401 133.352 55.4273 132.576 54.6608C131.8 53.8943 130.88 53.2894 129.869 52.8812C128.857 52.473 127.775 52.2697 126.685 52.283ZM104.143 55.6893C106.641 63.3706 106.642 71.646 104.144 79.3277C101.647 87.0094 96.7804 93.7025 90.2426 98.4462C83.7048 103.19 75.8323 105.74 67.7548 105.732C59.6774 105.723 51.8104 103.155 45.2829 98.3974C38.7555 93.6395 33.9032 86.9359 31.4226 79.2488C28.9419 71.5617 28.9604 63.2863 31.4755 55.6104C33.9905 47.9345 38.8727 41.2527 45.4213 36.524C51.97 31.7954 59.8484 29.263 67.9258 29.2904C72.6753 29.2862 77.383 30.1784 81.8015 31.9203L51.7459 61.7254C51.4164 62.0481 51.1824 62.4554 51.0696 62.9026L45.334 85.7449C45.2042 86.1821 45.1963 86.6465 45.3111 87.0878C45.4258 87.5292 45.6589 87.9309 45.9852 88.2495C46.2172 88.4862 46.4938 88.6745 46.7991 88.8035C47.1043 88.9324 47.4321 88.9996 47.7635 89.0009C47.9632 89.0251 48.165 89.0251 48.3646 89.0009L71.4574 83.3154C71.8991 83.2215 72.3012 82.9942 72.6095 82.6642L103.066 52.6086C103.517 53.6151 103.918 54.6432 104.268 55.6893H104.143ZM54.7765 68.3627L65.847 79.308L51.1448 82.9397L54.7765 68.3627ZM70.7811 77.154L56.9806 63.5037L106.673 14.4128L120.473 28.0631L70.7811 77.154ZM118.369 5.77184C120.238 5.75332 122.038 6.47345 123.379 7.77556L127.236 11.6076C128.542 12.9176 129.275 14.6919 129.275 16.5418C129.275 18.3916 128.542 20.166 127.236 21.4759L124.13 24.5316L110.229 10.8813L113.31 7.82565C113.956 7.1741 114.724 6.6571 115.571 6.30456C116.418 5.95203 117.327 5.77096 118.244 5.77184H118.369ZM130.041 74.474C130.041 75.3309 129.7 76.1528 129.095 76.7587C128.489 77.3646 127.667 77.705 126.81 77.705H122.752C121.047 77.7263 119.39 78.2778 118.012 79.2831C116.635 80.2885 115.604 81.6977 115.063 83.3154C114.364 85.4624 113.527 87.5623 112.558 89.602C111.802 91.1418 111.545 92.8791 111.824 94.5718C112.102 96.2645 112.902 97.8281 114.111 99.0445L116.891 101.825C117.194 102.125 117.433 102.482 117.597 102.875C117.761 103.269 117.845 103.69 117.845 104.116C117.845 104.542 117.761 104.964 117.597 105.357C117.433 105.751 117.194 106.108 116.891 106.408L106.823 116.402C106.523 116.704 106.166 116.944 105.772 117.107C105.379 117.271 104.957 117.355 104.531 117.355C104.105 117.355 103.683 117.271 103.29 117.107C102.897 116.944 102.54 116.704 102.239 116.402L99.4592 113.622C98.2635 112.382 96.7063 111.551 95.0103 111.25C93.3143 110.949 91.5665 111.191 90.0167 111.943C87.9703 112.916 85.8618 113.753 83.705 114.448C82.0697 114.989 80.648 116.034 79.6443 117.434C78.6407 118.833 78.1069 120.515 78.1197 122.237V126.17C78.1401 127.025 77.8231 127.854 77.2372 128.477C76.6514 129.1 75.8437 129.468 74.9889 129.501H60.9379C60.081 129.501 59.2592 129.161 58.6533 128.555C58.0473 127.949 57.7069 127.127 57.7069 126.27V122.338C57.7159 120.616 57.1806 118.936 56.1775 117.537C55.1744 116.138 53.7548 115.092 52.1216 114.548C49.9648 113.853 47.8563 113.017 45.8099 112.044C44.2728 111.276 42.5327 111.013 40.8373 111.292C39.142 111.571 37.5778 112.377 36.3674 113.596L33.5873 116.402C33.287 116.704 32.9299 116.944 32.5366 117.107C32.1433 117.271 31.7215 117.355 31.2955 117.355C30.8695 117.355 30.4477 117.271 30.0544 117.107C29.6611 116.944 29.3041 116.704 29.0038 116.402L19.1355 106.383C18.8306 106.088 18.589 105.733 18.4254 105.341C18.2617 104.949 18.1795 104.528 18.1837 104.104C18.1805 103.676 18.263 103.251 18.4265 102.855C18.5899 102.46 18.831 102.101 19.1355 101.8L21.9157 99.0195C23.1384 97.8112 23.9472 96.2468 24.2261 94.5505C24.5051 92.8543 24.2399 91.1133 23.4685 89.577C22.4956 87.5306 21.6589 85.4221 20.9639 83.2653C20.4134 81.6362 19.3656 80.2209 17.9682 79.2189C16.5707 78.2169 14.8941 77.6786 13.1745 77.68H9.14201C8.2851 77.68 7.46328 77.3396 6.85736 76.7336C6.25143 76.1277 5.91102 75.3059 5.91102 74.449V60.5232C5.91102 59.6663 6.25143 58.8445 6.85736 58.2386C7.46328 57.6326 8.2851 57.2922 9.14201 57.2922H13.0743C14.7957 57.3012 16.4758 56.7659 17.8748 55.7628C19.2737 54.7597 20.3199 53.3401 20.8637 51.7069C21.5586 49.542 22.3953 47.4251 23.3683 45.3702C24.1377 43.8377 24.4018 42.1009 24.1228 40.409C23.8438 38.7171 23.0361 37.1571 21.8155 35.9527L19.1355 33.1726C18.5314 32.5628 18.1924 31.7392 18.1924 30.8808C18.1924 30.0225 18.5314 29.1988 19.1355 28.5891L29.0038 18.7208C29.3041 18.4187 29.6611 18.1789 30.0544 18.0152C30.4477 17.8516 30.8695 17.7674 31.2955 17.7674C31.7215 17.7674 32.1433 17.8516 32.5366 18.0152C32.9299 18.1789 33.287 18.4187 33.5873 18.7208L36.3674 21.501C37.5798 22.717 39.1438 23.5212 40.8383 23.7999C42.5327 24.0785 44.2719 23.8176 45.8099 23.0538C47.8563 22.0809 49.9648 21.2442 52.1216 20.5492C53.7527 20.002 55.1702 18.9551 56.1727 17.5569C57.1753 16.1587 57.7121 14.4803 57.7069 12.7598V8.70227C57.7069 7.84536 58.0473 7.02355 58.6533 6.41762C59.2592 5.8117 60.081 5.47129 60.9379 5.47129H74.9889C75.8307 5.49718 76.6297 5.8482 77.2181 6.45066C77.8065 7.05312 78.1387 7.86014 78.1448 8.70227V12.6345C78.1358 14.3559 78.6711 16.0361 79.6742 17.4351C80.6773 18.834 82.0969 19.8801 83.7301 20.424C86.0502 21.2311 88.3101 22.202 90.4926 23.3294L85.6837 28.0631C80.1071 25.5318 74.05 24.2332 67.9258 24.2561C58.8324 24.2755 49.978 27.1702 42.6292 32.5263C35.2804 37.8823 29.8138 45.4252 27.0112 54.0761C24.2087 62.7269 24.2138 72.0425 27.0258 80.6903C29.8378 89.3381 35.3127 96.875 42.6673 102.223C50.0219 107.571 58.8795 110.456 67.973 110.466C77.0665 110.475 85.93 107.608 93.2958 102.276C100.661 96.943 106.152 89.4174 108.982 80.7755C111.812 72.1336 111.837 62.8181 109.052 54.1614C108.418 52.2753 107.656 50.4343 106.773 48.6512L111.532 43.9425C112.938 46.4203 114.12 49.0187 115.063 51.7069C115.614 53.336 116.661 54.7513 118.059 55.7533C119.456 56.7553 121.133 57.2936 122.853 57.2922H126.785C127.642 57.2922 128.464 57.6326 129.069 58.2386C129.675 58.8445 130.016 59.6663 130.016 60.5232L130.041 74.474Z" fill="#DC3033"/>
</svg>
