<svg width="128" height="135" viewBox="0 0 128 135" fill="none" xmlns="http://www.w3.org/2000/svg">
<path d="M124.259 40.8967C122.918 39.8028 121.291 39.1162 119.572 38.9182C117.853 38.7202 116.113 39.0192 114.559 39.7797C113.004 40.5402 111.7 41.7304 110.801 43.2092C109.902 44.688 109.446 46.3934 109.487 48.1235L109.361 69.4888C107.83 69.0312 106.203 68.9989 104.654 69.3955C103.106 69.792 101.695 70.6024 100.572 71.7399L83.2868 88.9911C82.152 90.1292 81.2527 91.4799 80.6402 92.9659C80.0277 94.4518 79.7142 96.0439 79.7174 97.6512L79.7126 111.001L79.763 116.532H76.7474C76.1128 116.532 75.5041 116.784 75.0554 117.233C74.6066 117.682 74.3545 118.291 74.3545 118.925V132.093C74.3545 132.727 74.6066 133.336 75.0554 133.785C75.5041 134.234 76.1128 134.486 76.7474 134.486H114.452C115.087 134.486 115.696 134.234 116.144 133.785C116.593 133.336 116.845 132.727 116.845 132.093V118.925C116.713 115.716 112.981 116.664 110.883 116.532C110.981 114.457 110.245 110.771 112.06 109.229L123.695 97.5845C125.985 95.2823 127.28 92.1737 127.302 88.9268L127.437 47.7516C127.439 46.4464 127.156 45.1563 126.607 43.9721C126.058 42.7879 125.256 41.7382 124.259 40.8967ZM112.06 121.318V129.7H79.1402V121.318C79.1402 121.318 111.091 121.318 112.06 121.318ZM122.517 88.9045C122.504 90.8891 121.713 92.7895 120.314 94.1973L108.658 105.861C105.718 108.509 105.967 112.931 106.097 116.532H84.5491C84.4893 112.975 84.4965 101.4 84.5031 97.6463C84.5112 95.669 85.2929 93.7735 86.681 92.3653L103.958 75.1224C104.735 74.3653 105.777 73.94 106.862 73.9363C107.947 73.9325 108.991 74.3506 109.774 75.1022C110.557 75.8539 111.017 76.8803 111.057 77.9647C111.097 79.0491 110.714 80.1067 109.989 80.9142C109.885 81.0721 93.7129 97.1916 93.586 97.3372C93.1526 97.789 92.9136 98.3927 92.9202 99.0187C92.9268 99.6448 93.1784 100.243 93.6212 100.686C94.0639 101.129 94.6625 101.38 95.2885 101.387C95.9146 101.393 96.5182 101.154 96.9699 100.72L113.275 84.4157C114.763 82.8978 115.666 80.9014 115.822 78.781C115.978 76.6606 115.378 74.5535 114.128 72.8339L114.272 48.1361C114.218 47.3141 114.405 46.4941 114.809 45.7762C115.213 45.0583 115.817 44.4735 116.548 44.0931C117.279 43.7127 118.104 43.5532 118.924 43.634C119.744 43.7148 120.523 44.0324 121.165 44.5481C121.63 44.9391 122.005 45.4272 122.261 45.9783C122.518 46.5293 122.651 47.1299 122.651 47.7378L122.517 88.9045Z" fill="#DC3033"/>
<path d="M51.5687 116.532H48.5527L48.6033 110.977L48.5985 97.6581C48.6018 96.0466 48.287 94.4503 47.6723 92.9606C47.0576 91.471 46.155 90.1172 45.0162 88.977L27.7486 71.7456C26.625 70.6075 25.2137 69.7956 23.665 69.3961C22.1164 68.9967 20.4884 69.0249 18.9545 69.4775L18.8292 48.1384C18.8731 46.4069 18.4192 44.6992 17.5215 43.2179C16.6238 41.7366 15.32 40.5441 13.7648 39.7817C12.2096 39.0193 10.4682 38.7191 8.74751 38.9168C7.02679 39.1145 5.39892 39.8018 4.05712 40.897C3.05906 41.7388 2.25739 42.7888 1.70839 43.9734C1.1594 45.158 0.876395 46.4484 0.879264 47.754L1.01362 88.9326C1.03659 92.1757 2.32984 95.2805 4.61588 97.5809L16.2413 109.212C18.0823 110.772 17.3319 114.472 17.4332 116.532H13.8637C13.229 116.532 12.6204 116.784 12.1717 117.233C11.7229 117.682 11.4708 118.29 11.4708 118.925V132.093C11.4708 132.727 11.7229 133.336 12.1717 133.785C12.6204 134.233 13.229 134.486 13.8637 134.486H51.5687C52.2033 134.486 52.8119 134.233 53.2607 133.785C53.7094 133.336 53.9615 132.727 53.9615 132.093V118.925C53.9615 118.29 53.7094 117.682 53.2607 117.233C52.8119 116.784 52.2033 116.532 51.5687 116.532ZM7.99715 94.1938C6.60191 92.7878 5.81297 90.8912 5.79941 88.9104L5.66509 47.74C5.67447 47.1775 5.79682 46.6227 6.02489 46.1085C6.25296 45.5943 6.58209 45.1311 6.99271 44.7467C7.40333 44.3622 7.88706 44.0642 8.41515 43.8704C8.94323 43.6766 9.5049 43.5909 10.0667 43.6185C10.6286 43.6461 11.1792 43.7864 11.6857 44.031C12.1923 44.2756 12.6445 44.6195 13.0155 45.0424C13.3864 45.4653 13.6686 45.9584 13.8452 46.4925C14.0218 47.0266 14.0892 47.5907 14.0434 48.1514L14.1885 72.8337C12.9376 74.5544 12.3374 76.6628 12.4947 78.7843C12.6519 80.9058 13.5564 82.9028 15.0472 84.4203L31.3462 100.72C31.7979 101.154 32.4018 101.394 33.0282 101.388C33.6546 101.381 34.2536 101.13 34.6965 100.687C35.1394 100.244 35.391 99.6449 35.3972 99.0185C35.4034 98.3921 35.1638 97.7883 34.7297 97.3366L18.4484 81.0553C17.6772 80.2679 17.2476 79.2082 17.2528 78.1061C17.2579 77.004 17.6974 75.9484 18.4759 75.1682C19.2544 74.3881 20.3091 73.9463 21.4112 73.9388C22.5133 73.9314 23.5739 74.3587 24.3629 75.1282L41.6221 92.3513C43.0183 93.7638 43.8048 95.6674 43.8128 97.6534C43.8098 101.439 43.8359 112.898 43.7667 116.532H22.2194C22.3412 112.883 22.6201 108.555 19.6425 105.845L7.99715 94.1938ZM49.1758 129.7H16.2565V121.318C17.1518 121.318 49.1758 121.318 49.1758 121.318V129.7Z" fill="#DC3033"/>
<path d="M100.875 55.0396C101.312 56.6078 101.224 9.855 101.164 9.35142C101.164 9.03719 101.102 8.72603 100.982 8.43573C100.862 8.14542 100.686 7.88164 100.463 7.65947C100.241 7.43729 99.9774 7.26107 99.687 7.14085C99.3967 7.02064 99.0856 6.9588 98.7713 6.95885C86.5833 6.72517 74.8689 5.80873 65.3848 0.824529C65.0139 0.603143 64.59 0.486278 64.1581 0.486328C63.7261 0.486379 63.3022 0.603344 62.9314 0.824817C53.4548 5.80229 41.7263 6.72658 29.5446 6.95869C28.9099 6.95877 28.3012 7.21093 27.8525 7.65971C27.4037 8.1085 27.1515 8.71715 27.1514 9.35183C27.3267 9.51277 26.7701 57.1555 27.4657 55.0499C30.2471 68.9839 59.8312 85.1353 64.158 86.6285C68.5174 85.115 98.0449 69.0081 100.875 55.0396ZM64.158 81.5272C54.8051 76.4915 33.7018 63.3916 32.1804 54.2279C32.014 53.3018 31.9327 52.3624 31.9374 51.4214V11.7221C43.7611 11.3256 54.6603 10.1814 64.158 5.61629C73.6535 10.178 84.5624 11.3264 96.3786 11.7221V51.4215C96.38 52.3729 96.3042 53.3227 96.152 54.2618C94.6225 63.3834 73.5121 76.4893 64.158 81.5272Z" fill="#DC3033"/>
<path d="M79.0666 32.1667L70.583 31.3932L67.2274 23.5629C66.9624 22.9703 66.5315 22.4671 65.9868 22.114C65.4421 21.7609 64.8068 21.5731 64.1577 21.5732C63.5086 21.5734 62.8733 21.7614 62.3287 22.1146C61.7841 22.4679 61.3535 22.9712 61.0887 23.5639L57.7331 31.3933L49.2482 32.1679C48.5976 32.2275 47.9787 32.4767 47.4682 32.8846C46.9577 33.2924 46.5781 33.8411 46.3764 34.4625C46.1746 35.084 46.1597 35.751 46.3333 36.3809C46.5069 37.0109 46.8615 37.576 47.3531 38.0064L53.7629 43.617L51.8747 51.9194C51.768 52.408 51.7715 52.9143 51.8852 53.4014C51.9988 53.8885 52.2196 54.3441 52.5315 54.7351C52.8435 55.126 53.2387 55.4425 53.6883 55.6615C54.138 55.8804 54.6309 55.9963 55.131 56.0007C56.3652 56.3046 62.8589 51.7647 64.158 51.1682L71.4744 55.5287C72.0359 55.8636 72.6832 56.0264 73.3363 55.9969C73.9894 55.9673 74.6195 55.7467 75.1483 55.3624C75.6772 54.9781 76.0816 54.447 76.3114 53.835C76.5413 53.223 76.5864 52.557 76.4412 51.9195L74.5531 43.617L80.963 38.0062C81.4547 37.5757 81.8093 37.0104 81.9829 36.3803C82.1564 35.7502 82.1413 35.0831 81.9395 34.4615C81.7376 33.8399 81.3579 33.2912 80.8473 32.8833C80.3366 32.4754 79.7175 32.2262 79.0666 32.1667ZM70.7512 40.5837C70.2979 40.98 69.9604 41.4917 69.7744 42.0644C69.5884 42.6371 69.561 43.2494 69.695 43.8365L71.0258 49.6901L65.8709 46.6173C65.3536 46.3078 64.7621 46.1442 64.1594 46.144C63.5566 46.1438 62.965 46.307 62.4475 46.6161L57.2902 49.6901L58.621 43.8365C58.755 43.2494 58.7276 42.6371 58.5416 42.0644C58.3557 41.4917 58.0181 40.98 57.5648 40.5837L53.0432 36.6264L59.0229 36.0819C59.6225 36.0273 60.1962 35.8117 60.6834 35.458C61.1706 35.1042 61.5533 34.6255 61.7909 34.0723L64.158 28.5505L66.5275 34.0793C66.7657 34.6308 67.1482 35.1078 67.6347 35.4602C68.1212 35.8127 68.6937 36.0274 69.2919 36.0819L75.2729 36.6264L70.7512 40.5837Z" fill="#DC3033"/>
</svg>
