<svg width="138" height="135" viewBox="0 0 138 135" fill="none" xmlns="http://www.w3.org/2000/svg">
<path d="M129.034 58.5286C128.498 43.2627 122.316 28.9874 111.461 18.1322C100.083 6.75219 84.9618 0.487061 68.8846 0.487061C36.4131 0.487061 9.88089 26.3326 8.7372 58.5286C3.78195 60.7307 0.313721 65.6903 0.313721 71.4547V87.3351C0.313721 95.1331 6.65757 101.479 14.4578 101.479C19.5049 101.479 23.6095 97.3746 23.6095 92.3275V66.4601C23.6095 61.7213 19.9751 57.8573 15.3544 57.398C17.0601 29.3482 40.4105 7.0474 68.8846 7.0474C83.2124 7.0474 96.6851 12.6324 106.825 22.7725C116.137 32.0839 121.586 44.2205 122.406 57.4002C117.79 57.8638 114.162 61.7257 114.162 66.4601V92.3253C114.162 97.1034 117.853 100.992 122.529 101.396V107.932C122.529 115.293 116.539 121.28 109.178 121.28H99.2918C98.8063 119.894 98.0453 118.613 96.9782 117.55C95.1085 115.671 92.6156 114.637 89.9608 114.637H79.7704C78.3074 114.637 76.9035 114.948 75.6177 115.547C72.1101 117.158 69.8446 120.697 69.8446 124.561C69.8446 127.215 70.879 129.708 72.753 131.574C74.6271 133.452 77.12 134.486 79.7704 134.486H89.9608C94.1857 134.486 97.9098 131.755 99.2984 127.841H109.178C120.158 127.841 129.089 118.91 129.089 107.932V100.228C134.013 98.0131 137.455 93.071 137.455 87.3307V71.4503C137.455 65.6903 133.987 60.7307 129.034 58.5286ZM17.047 66.4601V92.3253C17.047 93.7533 15.8858 94.9166 14.4556 94.9166C10.2745 94.9166 6.87188 91.514 6.87188 87.3329V71.4525C6.87188 67.2692 10.2745 63.8687 14.4556 63.8687C15.8858 63.8687 17.047 65.0321 17.047 66.4601ZM93.2519 125.265C92.9261 126.809 91.5397 127.93 89.9586 127.93H79.7682C78.8716 127.93 78.0297 127.581 77.3868 126.938C76.7526 126.306 76.4028 125.462 76.4028 124.565C76.4028 123.255 77.1703 122.059 78.3731 121.506C78.8017 121.305 79.2718 121.202 79.7682 121.202H89.9586C90.8552 121.202 91.6971 121.549 92.3378 122.192C92.972 122.824 93.3219 123.668 93.3219 124.565C93.3241 124.806 93.2978 125.046 93.2519 125.265ZM130.895 87.3329C130.895 91.514 127.493 94.9166 123.311 94.9166C121.883 94.9166 120.72 93.7555 120.72 92.3253V66.4601C120.72 65.0321 121.881 63.8687 123.311 63.8687C127.493 63.8687 130.895 67.2713 130.895 71.4525V87.3329Z" fill="#DC3033"/>
<path d="M90.1248 88.4633C97.7895 88.4633 104.024 82.2267 104.024 74.5642V46.2432C104.024 42.5388 102.576 39.0487 99.9479 36.4202C97.3193 33.7916 93.8314 32.344 90.1248 32.344H47.6444C39.9798 32.344 33.7452 38.5785 33.7452 46.2432V74.5642C33.7452 82.2288 39.9798 88.4633 47.6444 88.4633H47.9046V95.8022C47.9046 98.6013 49.5732 101.085 52.1536 102.133C52.9867 102.467 53.8527 102.634 54.7099 102.634C56.4965 102.634 58.2372 101.925 59.5121 100.607L71.7209 88.4633H90.1248ZM68.058 82.8564L54.8455 95.9968C54.7864 96.058 54.7427 96.104 54.6181 96.0493C54.4672 95.9881 54.4672 95.8897 54.4672 95.8022V85.1832C54.4672 83.3725 52.9998 81.903 51.187 81.903H47.6466C43.5989 81.903 40.3078 78.6097 40.3078 74.5642V46.2432C40.3078 42.1954 43.5989 38.9043 47.6466 38.9043H90.127C92.082 38.9043 93.9211 39.6697 95.3119 41.0583C96.7027 42.4491 97.4659 44.2904 97.4659 46.2432V74.5642C97.4659 78.6119 94.1726 81.903 90.127 81.903H70.3716C69.5035 81.903 68.6725 82.2463 68.058 82.8564Z" fill="#DC3033"/>
<path d="M52.9495 56.0881C50.2816 56.0881 48.1102 58.2618 48.1102 60.9275C48.1102 63.5932 50.2838 65.7668 52.9495 65.7668C55.6196 65.7668 57.7932 63.5932 57.7932 60.9275C57.7932 58.2618 55.6218 56.0881 52.9495 56.0881Z" fill="#DC3033"/>
<path d="M68.8824 56.0881C66.2146 56.0881 64.0431 58.2618 64.0431 60.9275C64.0431 63.5932 66.2168 65.7668 68.8824 65.7668C71.5547 65.7668 73.7262 63.5932 73.7262 60.9275C73.7262 58.2618 71.5547 56.0881 68.8824 56.0881Z" fill="#DC3033"/>
<path d="M84.8153 56.0881C82.1474 56.0881 79.976 58.2618 79.976 60.9275C79.976 63.5932 82.1496 65.7668 84.8153 65.7668C87.4854 65.7668 89.659 63.5932 89.659 60.9275C89.659 58.2618 87.4854 56.0881 84.8153 56.0881Z" fill="#DC3033"/>
</svg>
